<?xml version="1.0" encoding="UTF-8" standalone="no"?>
<svg version="1.1" viewBox="0 0 52.404 38.887" id="svg52" xmlns="http://www.w3.org/2000/svg"
    xmlns:svg="http://www.w3.org/2000/svg">
    <defs id="defs56" />
    <g transform="translate(-8.0306 -20.955)" id="g50">
        <g transform="translate(1.3957 -2.8844)" fill="#d8d8d8" stroke="currentColor" stroke-linecap="round"
            stroke-linejoin="round" stroke-width="2.3812" id="g6">
            <path
                d="m46.316 35.018c1.3179 0.10019 2.614 1.3149 2.614 1.3149s-0.77334 7.9478-1.026 10.995l-4.3903-7.5435-0.10041-3.7732c-0.0217-0.81603 1.677-1.0297 2.9027-0.99322z"
                style="mix-blend-mode:normal;paint-order:fill markers stroke" id="path2" />
            <path
                d="m46.325 30.073c2.748 0.0102 3.1531 4.2698 0.2558 4.6896-3.1851 0.46156-3.8238-4.3675-0.52916-4.6772 0.0935-9e-3 0.18472-0.0127 0.27336-0.0124z"
                style="mix-blend-mode:normal;paint-order:fill markers stroke" id="path4" />
        </g>
        <g transform="translate(3.2566 .46523)" fill="#d8d8d8" stroke="currentColor" stroke-linecap="round"
            stroke-linejoin="round" stroke-width="2.3812" id="g12">
            <path
                d="m53.373 45.874c1.3179 0.10019 2.614 1.3149 2.614 1.3149s-0.77334 7.9478-1.026 10.995l-4.3903-7.5435-0.10041-3.7732c-0.0217-0.81603 1.677-1.0297 2.9027-0.99322z"
                style="mix-blend-mode:normal;paint-order:fill markers stroke" id="path8" />
            <path
                d="m53.382 40.929c2.748 0.0102 3.1531 4.2698 0.2558 4.6896-3.1851 0.46156-3.8238-4.3675-0.52916-4.6772 0.0935-9e-3 0.18472-0.0127 0.27336-0.0124z"
                style="mix-blend-mode:normal;paint-order:fill markers stroke" id="path10" />
        </g>
        <g stroke-linecap="round" stroke-linejoin="round" id="g18">
            <path d="m26.755 40.453-10.141 17.455h34.396l-10.406-17.567z" fill="#d8d8d8" stroke="currentColor"
                stroke-width="2.3812" style="mix-blend-mode:normal;paint-order:fill markers stroke" id="path14" />
            <path
                d="m32.852 40.403-6.0963 0.04961-10.141 17.455h25.496c-5.5334-3.7208-12.176-9.0384-10.96-12.461 0.66621-1.8744 1.2294-3.5387 1.7012-5.0431z"
                fill="#d3d3d3" stroke="#d3d3d3" stroke-width=".453"
                style="mix-blend-mode:soft-light;paint-order:stroke fill markers" id="path16" />
        </g>
        <g transform="translate(-2.7914 .093045)" stroke-linecap="round" stroke-linejoin="round" id="g28">
            <path
                d="m14.627 46.249c-1.3179 0.10019-2.614 1.3149-2.614 1.3149s0.77334 7.9478 1.026 10.995l4.3903-7.5435 0.10041-3.7732c0.0217-0.81603-1.677-1.0297-2.9027-0.99321z"
                fill="#d8d8d8" stroke="currentColor" stroke-width="2.3812"
                style="mix-blend-mode:normal;paint-order:fill markers stroke" id="path20" />
            <path
                d="m14.618 41.305c-2.748 0.0102-3.1531 4.2698-0.2558 4.6896 3.1851 0.46156 3.8238-4.3675 0.52916-4.6772-0.0935-9e-3 -0.18472-0.0127-0.27336-0.0124z"
                fill="#d8d8d8" stroke="currentColor" stroke-width="2.3812"
                style="mix-blend-mode:normal;paint-order:fill markers stroke" id="path22" />
            <path
                d="m15.104 46.248c-0.16371-0.0039-0.32428-0.0035-0.47749 0.0011-1.3179 0.10019-2.6143 1.3146-2.6143 1.3146s0.77363 7.948 1.0263 10.995l4.3899-7.5432 0.10077-3.7734c0.019-0.71403-1.2792-0.96666-2.4252-0.99425z"
                fill="#d3d3d3" stroke="#d3d3d3" stroke-width=".453"
                style="mix-blend-mode:soft-light;paint-order:stroke fill markers" id="path24" />
            <path
                d="m14.618 41.305c-2.748 0.01019-3.1531 4.2698-0.2558 4.6896 3.1851 0.46156 3.8238-4.3675 0.52917-4.6772-0.0935-9e-3 -0.18473-0.0127-0.27337-0.01241z"
                fill="#d3d3d3" stroke="#d3d3d3" stroke-width=".453"
                style="mix-blend-mode:soft-light;paint-order:stroke fill markers" id="path26" />
        </g>
        <g stroke-linecap="round" stroke-linejoin="round" id="g38">
            <path
                d="m20.11 31.873c-1.3179 0.10019-2.614 1.3149-2.614 1.3149s0.77334 7.9478 1.026 10.995l4.3903-7.5435 0.10041-3.7732c0.0217-0.81603-1.677-1.0297-2.9027-0.99322z"
                fill="#d8d8d8" stroke="currentColor" stroke-width="2.3812"
                style="mix-blend-mode:normal;paint-order:fill markers stroke" id="path30" />
            <path
                d="m20.101 26.929c-2.748 0.0102-3.1531 4.2698-0.2558 4.6896 3.1851 0.46156 3.8238-4.3675 0.52916-4.6772-0.0935-9e-3 -0.18472-0.0127-0.27336-0.0124z"
                fill="#d8d8d8" stroke="currentColor" stroke-width="2.3812"
                style="mix-blend-mode:normal;paint-order:fill markers stroke" id="path32" />
            <path
                d="m20.588 31.872c-0.16371-0.0039-0.32428-3e-3 -0.47749 0.0016-1.3179 0.10019-2.6138 1.3147-2.6138 1.3147s0.77312 7.948 1.0258 10.995l4.3904-7.5437 0.10025-3.7729c0.019-0.71403-1.2792-0.96717-2.4252-0.99477z"
                fill="#d3d3d3" stroke="#d3d3d3" stroke-width=".453"
                style="mix-blend-mode:soft-light;paint-order:stroke fill markers" id="path34" />
            <path
                d="m20.101 26.929c-2.748 0.01021-3.1531 4.2698-0.2558 4.6896 3.1851 0.46156 3.8238-4.3675 0.52917-4.6772-0.0935-9e-3 -0.18473-0.0127-0.27337-0.01241z"
                fill="#d3d3d3" stroke="#d3d3d3" stroke-width=".453"
                style="mix-blend-mode:soft-light;paint-order:stroke fill markers" id="path36" />
        </g>
        <g transform="translate(-.18609 -1.9539)" stroke-linecap="round" stroke-linejoin="round" id="g48">
            <path
                d="m31.296 29.59c-2.1089 1.1971-2.2412 4.3589-3.1055 7.4273h11.113s-0.95352-5.4634-2.264-7.026c-1.5556-1.2906-5.743-0.4013-5.743-0.4013z"
                fill="#d8d8d8" stroke="currentColor" stroke-width="2.3812"
                style="mix-blend-mode:normal;paint-order:fill markers stroke" id="path40" />
            <path
                d="m33.723 24.101c-0.16236 5e-3 -0.33092 0.0279-0.5054 0.0708-3.0861 0.75789-1.8612 5.4094 1.3178 4.5289 2.6219-0.72613 1.623-4.674-0.81235-4.5997z"
                fill="#d8d8d8" stroke="currentColor" stroke-width="2.3812"
                style="mix-blend-mode:normal;paint-order:fill markers stroke" id="path42" />
            <path
                d="m34.057 29.292c-1.4362 0.01651-2.7611 0.29817-2.7611 0.29817-2.1089 1.1971-2.2414 4.359-3.1058 7.4275h4.9857c0.97689-3.3078 1.4331-5.7438 1.3968-7.7189-0.17215-0.0065-0.34469-0.0087-0.51573-0.0067z"
                fill="#d3d3d3" stroke="#d3d3d3" stroke-width=".453"
                style="mix-blend-mode:soft-light;paint-order:stroke fill markers" id="path44" />
            <path
                d="m32.982 24.24c-2.7833 0.93235-1.5413 5.3173 1.5534 4.4602 0.0034-0.0011 0.0064-0.0021 0.0098-0.0031-0.12544-1.7204-0.65643-3.0997-1.5632-4.4571z"
                fill="#d3d3d3" stroke="#d3d3d3" stroke-width=".453"
                style="mix-blend-mode:soft-light;paint-order:stroke fill markers" id="path46" />
        </g>
    </g>
</svg>