<?xml version="1.0" encoding="UTF-8" standalone="no"?>
<!-- Created with Inkscape (http://www.inkscape.org/) -->

<svg viewBox="0 0 512 512" version="1.1" id="svg5" xmlns="http://www.w3.org/2000/svg"
   xmlns:svg="http://www.w3.org/2000/svg">
   <style>
      path {
         fill: #000;
      }

      @media (prefers-color-scheme: dark) {
         path {
            fill: #39ffb0;
         }
      }
   </style>
   <g transform="translate(-4.774,-20.48977)" fill="currentColor" stroke="currentColor" stroke-linecap="round"
      stroke-linejoin="round" stroke-width="2.3812" id="g12">
      <path
         d="M 196.16158,281.37844 C 169.32696,270.43979 74.952474,307.59613 46.988699,333.92513 125.98557,371.28101 249.69255,484.23716 258.29215,485.97005 c 10.62587,-1.51798 99.6796,-95.62848 194.92939,-156.72322 -39.27805,-24.15471 -107.96009,-56.67631 -128.6534,-49.1222 5.01803,16.59055 48.89089,18.53514 104.18556,49.90193 C 372.12564,370.21484 299.47066,420.75957 258.6302,465.42154 207.31421,417.4578 159.44543,374.41849 73.584656,332.8281 90.82512,314.39415 186.74579,288.81192 196.16158,281.37844 Z"
         id="path869" />
      <path
         d="m 213.40773,414.3339 c 0.82643,-66.44419 -4.55819,-171.17273 1.68984,-176.46574 3.79841,-1.15258 24.23524,5.92115 44.24183,5.92167 20.00659,5.1e-4 39.58294,-7.07218 44.69633,-9.19393 9.72161,10.31439 12.03423,114.85418 7.51116,175.32725 -2.34622,2.59268 -7.85913,2.8711 -10.47553,0.55135 -3.3069,-35.72878 -3.89747,-56.30405 -5.51343,-81.59885 -23.52786,0.63047 -35.32072,1.4099 -56.78839,2.75672 -4.59511,-3.99632 -5.67082,-13.61711 -1.65404,-18.19434 20.52305,-1.83293 35.46384,-0.0161 55.68571,-2.20537 -1.22582,-23.76077 1.62865,-42.60522 0.51554,-62.92477 -17.1761,11.04045 -46.00943,14.05826 -64.4714,4.48236 -4.80407,37.69565 2.77503,87.85221 1.10269,152.17081 -3.17077,5.48684 -11.07001,12.57207 -16.54031,9.37284 z"
         id="path2101" />
      <path
         d="m 278.46627,146.38094 c -18.59528,3.03596 -36.62497,-4.11721 -46.31285,25.3618 0,0 -4.9621,27.56718 29.77255,31.97793 0,0 24.25912,8.82149 45.76151,-43.55615 0,0 10.47552,-14.88626 -31.97792,-55.13435 0,0 -43.0048,-25.913143 -35.28599,-63.404504 0,0 0.6158,-9.057795 12.74535,-22.29004 14.73593,-10.1031809 22.88968,-18.9073796 31.91347,-9.6878864 0.67489,14.1529344 -15.91736,3.0288154 -28.59827,23.9798704 0,0 -21.64559,29.944401 32.93743,65.230391 0,0 31.49818,17.199039 34.25489,62.960559 0,0 -9.92418,46.31286 -56.78838,59.5451 0,0 -47.41554,-6.06477 -55.13436,-36.94002 0,0 -3.8594,-24.25912 18.74568,-46.31286 17.0773,-9.86688 48.43943,-19.22542 47.96689,8.27016 z"
         id="path3257" />
   </g>
</svg>