<?xml version="1.0" encoding="UTF-8" standalone="no"?>
<!-- Created with Inkscape (http://www.inkscape.org/) -->

<svg
   viewBox="0 0 408.61386 482.58658"
   version="1.1"
   id="svg5"
   xmlns="http://www.w3.org/2000/svg"
   xmlns:svg="http://www.w3.org/2000/svg">
  <defs
     id="defs11" />
  <style
     id="style2">
      path {
         fill: #000;
      }

      @media (prefers-color-scheme: dark) {
         path {
            fill: #39ffb0;
         }
      }
   </style>
  <g
     transform="translate(-45.798189,-4.5740839)"
     fill="currentColor"
     stroke="currentColor"
     stroke-linecap="round"
     stroke-linejoin="round"
     stroke-width="2.3812"
     id="g12">
    <path
       d="M 196.16158,281.37844 C 169.32696,270.43979 74.952474,307.59613 46.988699,333.92513 125.98557,371.28101 249.69255,484.23716 258.29215,485.97005 c 10.62587,-1.51798 99.6796,-95.62848 194.92939,-156.72322 -39.27805,-24.15471 -107.96009,-56.67631 -128.6534,-49.1222 5.01803,16.59055 48.89089,18.53514 104.18556,49.90193 C 372.12564,370.21484 299.47066,420.75957 258.6302,465.42154 207.31421,417.4578 159.44543,374.41849 73.584656,332.8281 90.82512,314.39415 186.74579,288.81192 196.16158,281.37844 Z"
       id="path869"
       style="stroke:none" />
    <path
       d="m 213.40773,414.3339 c 0.82643,-66.44419 -4.55819,-171.17273 1.68984,-176.46574 3.79841,-1.15258 24.23524,5.92115 44.24183,5.92167 20.00659,5.1e-4 39.58294,-7.07218 44.69633,-9.19393 9.72161,10.31439 12.03423,114.85418 7.51116,175.32725 -2.34622,2.59268 -12.90377,1.62473 -15.05052,1.08804 1.43679,-34.96979 2.575,-54.94326 -2.45642,-82.13554 -19.92265,4.23568 -36.8387,5.58435 -56.97814,-4.45369 l 0.3661,-3.78074 c 21.66153,1.58253 37.63361,-1.65116 55.3733,-9.40856 -1.22582,-23.76077 1.62865,-42.60522 0.51554,-62.92477 -17.1761,11.04045 -46.00943,14.05826 -64.4714,4.48236 -4.80407,37.69565 2.77503,87.85221 1.10269,152.17081 -3.17077,5.48684 -11.07001,12.57207 -16.54031,9.37284 z"
       id="path2101"
       style="stroke:none" />
    <path
       d="m 274.17277,146.38094 c -6.78816,-2.59926 -39.30841,-19.41281 -46.31285,25.3618 -0.53668,9.39204 -0.6686,27.56718 34.06605,31.97793 25.49266,-2.14675 37.67631,-22.03805 43.8831,-45.43456 0.53669,-19.05241 -3.47836,-32.86529 -30.09951,-53.25594 0,0 -43.0048,-25.913143 -35.28599,-63.404504 0,0 1.82335,-13.217124 18.51474,-23.095071 8.02733,-7.151399 30.16219,-9.9971565 31.51095,-7.80948 1.96127,2.039322 -31.51095,7.80948 -34.09931,26.79748 -1.87841,14.490566 -0.0439,35.177106 34.68166,60.534375 8.31866,5.90356 34.18162,24.98101 32.64483,62.42387 -9.66037,31.66457 -24.41475,54.63152 -52.49488,59.81344 -38.37317,-0.53669 -53.85579,-17.33521 -57.28111,-36.67167 -0.80503,-18.78407 -0.63927,-32.84612 12.57377,-45.77617 10.63705,-10.13523 44.68262,-11.44345 47.69855,8.5385 z"
       id="path3257"
       style="stroke:none" />
  </g>
</svg>
