<?xml version="1.0" encoding="UTF-8"?>
<svg version="1.1" viewBox="0 0 40.429 33.026" xmlns="http://www.w3.org/2000/svg">
    <g transform="translate(-13.654 -25.544)">
        <g transform="translate(-71.649 -218)" stroke-width="1.3229">
            <path
                d="m105.31 244.2c-0.16236 5e-3 -0.33092 0.0279-0.5054 0.0708-3.0861 0.75789-1.8612 5.4094 1.3178 4.5289 2.6219-0.72613 1.623-4.674-0.81235-4.5997zm17.159 13.736c2.748 0.0102 3.1531 4.2698 0.2558 4.6896-3.1851 0.46156-3.8238-4.3675-0.52916-4.6772 0.0935-9e-3 0.18472-0.0127 0.27336-0.0124zm-9e-3 4.9444c1.3179 0.10019 2.614 1.3149 2.614 1.3149s-0.77334 7.9478-1.026 10.995l-4.3903-7.5435-0.10041-3.7732c-0.0217-0.81603 1.677-1.0297 2.9027-0.99322zm-5.8642-13.958c2.748 0.0102 3.1531 4.2698 0.2558 4.6896-3.1851 0.46156-3.8238-4.3675-0.52916-4.6772 0.0935-9e-3 0.18472-0.0127 0.27336-0.0124zm-9e-3 4.9444c1.3179 0.10019 2.614 1.3149 2.614 1.3149s-0.77334 7.9478-1.026 10.995l-4.3903-7.5435-0.10041-3.7732c-0.0217-0.81603 1.677-1.0297 2.9027-0.99322zm-22.11-5.5381c-2.748 0.0102-3.1531 4.2698-0.2558 4.6896 3.1851 0.46156 3.8238-4.3675 0.52916-4.6772-0.0935-9e-3 -0.18472-0.0127-0.27336-0.0124zm8.406 1.3603c-2.1089 1.1971-2.2412 4.3589-3.1055 7.4273h11.113s-0.95352-5.4634-2.264-7.026c-1.5556-1.2906-5.743-0.4013-5.743-0.4013zm-8.3967 3.5841c-1.3179 0.10019-2.614 1.3149-2.614 1.3149s0.77334 7.9478 1.026 10.995l4.3903-7.5435 0.10041-3.7732c0.0217-0.81603-1.677-1.0297-2.9027-0.99322zm3.7905 5.1736-10.141 17.455h34.396l-10.406-17.567zm-9.7033-0.46405c-2.748 0.0102-3.1531 4.2698-0.2558 4.6896 3.1851 0.46156 3.8238-4.3675 0.52916-4.6772-0.0935-9e-3 -0.18472-0.0127-0.27336-0.0124zm9e-3 4.9444c-1.3179 0.10019-2.614 1.3149-2.614 1.3149s0.77334 7.9478 1.026 10.995l4.3903-7.5435 0.10041-3.7732c0.0217-0.81603-1.677-1.0297-2.9027-0.99321z"
                fill="#d8d8d8" stroke="#282318" stroke-linecap="round" stroke-linejoin="round" stroke-width="1.3229"
                style="mix-blend-mode:normal;paint-order:fill markers stroke" />
            <path transform="scale(.26458)"
                d="m395.21 923.5c-10.52 3.5238-5.8253 20.097 5.8711 16.857 0.0129-4e-3 0.0243-8e-3 0.0371-0.0117-0.4741-6.5022-2.481-11.715-5.9082-16.846zm-38.145 15.078c-10.386 0.0386-11.917 16.138-0.96679 17.725 12.038 1.7445 14.452-16.507 2-17.678-0.35339-0.034-0.69819-0.048-1.0332-0.0469zm42.207 4.0137c-5.428 0.0624-10.436 1.127-10.436 1.127-7.9708 4.5246-8.4716 16.475-11.738 28.072h18.844c3.6922-12.502 5.4163-21.709 5.2793-29.174-0.65064-0.0245-1.3028-0.0328-1.9492-0.0254zm-40.367 14.668c-0.61874-0.0149-1.2256-0.0114-1.8047 6e-3 -4.9809 0.37868-9.8789 4.9688-9.8789 4.9688s2.922 30.04 3.877 41.557l16.594-28.512 0.3789-14.26c0.0718-2.6987-4.8348-3.6554-9.166-3.7598zm-24.152 17.805c-10.386 0.0385-11.917 16.138-0.96679 17.725 12.038 1.7445 14.452-16.507 2-17.678-0.35339-0.034-0.69819-0.048-1.0332-0.0469zm59.715 1.5664-23.041 0.1875-38.328 65.971h96.361c-20.914-14.063-46.02-34.161-41.422-47.098 2.518-7.0844 4.6465-13.375 6.4297-19.061zm-57.875 17.117c-0.61874-0.0149-1.2256-0.0134-1.8047 4e-3 -4.9809 0.37867-9.8809 4.9688-9.8809 4.9688s2.924 30.04 3.8789 41.557l16.592-28.51 0.38086-14.262c0.0718-2.6987-4.8348-3.6535-9.166-3.7578z"
                fill="#d3d3d3" style="mix-blend-mode:soft-light;paint-order:markers stroke fill" />
        </g>
    </g>
</svg>